<svg width="200" height="200" viewBox="0 0 200 200" fill="none" xmlns="http://www.w3.org/2000/svg">
<circle cx="100" cy="100" r="100" fill="white"/>
<path d="M149.879 66.8535C149.699 66.8326 149.415 66.7904 149.255 66.7473C149.093 66.7105 148.812 66.7039 148.617 66.7406C148.255 66.8082 148.458 66.6911 136.82 73.3441C133.486 75.2527 125.262 79.9503 118.534 83.7921C100.317 94.1898 96.1093 96.6126 95.9078 96.799C95.8062 96.8955 95.4967 97.3554 95.2274 97.8194C94.9564 98.2897 94.0355 99.8711 93.1778 101.346C92.3219 102.814 90.9372 105.199 90.1027 106.638C88.5767 109.267 85.7944 114.034 85.374 114.753C85.1562 115.127 83.7368 117.565 83.3876 118.172C83.2364 118.427 82.5299 119.647 81.6589 121.145C81.2233 121.895 80.1097 123.809 79.8485 124.269C79.7072 124.512 79.3632 125.101 79.084 125.576C78.8113 126.052 78.4673 126.641 78.326 126.885C78.1847 127.129 77.7874 127.812 77.4434 128.401C77.0993 128.989 76.5191 129.995 76.1484 130.631C75.7842 131.269 75.3753 131.97 75.2392 132.195C74.6883 133.092 74.6281 133.571 74.9813 134.175C75.3264 134.783 75.7661 134.964 76.8214 134.952C77.0841 134.947 77.5529 134.943 77.875 134.947C78.1971 134.951 78.6788 134.95 78.9397 134.952C79.2088 134.948 80.7068 134.953 82.2724 134.961C85.2055 134.974 85.8998 134.975 86.6697 134.976C87.4123 134.977 92.6763 134.991 94.7976 135.005C95.7399 135.004 96.7289 135.009 97.2525 135.005C98.0644 135.004 115.198 135.043 116.461 135.052C117.141 135.056 117.798 135.041 117.915 135.017C118.241 134.954 119.118 134.454 136.61 124.453C139.894 122.572 148.07 117.903 154.773 114.075C171.755 104.383 170.033 105.391 170.278 105.017C170.419 104.801 170.49 104.613 170.521 104.395C170.539 104.228 170.615 103.842 170.683 103.538C170.778 103.109 170.805 102.649 170.793 101.47C170.784 100.635 170.77 99.0497 170.762 97.9541C170.756 96.8522 170.712 95.8156 170.662 95.644C170.578 95.3187 170.235 94.9582 169.94 94.8788C169.489 94.7643 169.211 94.9027 164.584 97.5564C162.081 98.9869 151.808 104.859 141.748 110.603C118.095 124.104 119.864 123.074 119.472 123.532C119.293 123.739 119.024 124.127 118.867 124.401C118.405 125.226 118.371 125.581 118.399 128.697L118.431 131.388L117.843 131.731L117.255 132.075L111.07 132.061C107.675 132.054 103.429 132.039 101.636 132.031L98.3789 132.021L96.4025 128.608C90.4325 118.315 88.63 115.175 88.6524 115.092C88.6662 115.041 89.1903 114.116 89.8186 113.033C90.447 111.951 91.4558 110.221 92.0558 109.193C92.6494 108.163 94.044 105.767 95.146 103.87C96.2481 101.973 97.3468 100.088 97.5796 99.6835L98.0116 98.9471L98.6074 98.5985C98.9655 98.3923 99.2302 98.2779 99.2827 98.3127C99.3224 98.344 100.429 98.9857 101.739 99.7373C104.408 101.267 104.674 101.38 105.69 101.385C106.774 101.395 106.883 101.349 109.903 99.6311C113.875 97.3716 135.954 84.7608 143.18 80.6267C146.553 78.7011 151.103 76.1025 153.283 74.853C155.468 73.6052 157.336 72.4918 157.441 72.3826C157.862 71.9181 157.823 71.2956 157.352 70.8732C157.213 70.7531 155.751 69.8715 154.097 68.9171C151.015 67.1317 150.577 66.9176 149.879 66.8535Z" fill="#29323D"/>
<path d="M159.803 75.0539C159.577 75.0756 159.297 75.1447 159.18 75.1957C159.057 75.2451 157.29 76.241 155.257 77.4062C153.224 78.5714 143.188 84.3012 132.951 90.1418C107.841 104.481 109.015 103.8 108.671 104.21C108.329 104.613 108.106 105.288 108.189 105.668C108.276 106.036 116.301 119.832 116.539 120.02C116.864 120.272 117.565 120.399 118.084 120.284C118.581 120.177 117.479 120.795 132.592 112.169C166.659 92.7096 168.685 91.5427 169.001 91.1875C169.368 90.7705 169.587 90.1075 169.5 89.692C169.427 89.3492 161.485 75.6512 161.211 75.3917C160.948 75.1421 160.296 74.987 159.803 75.0539Z" fill="#29323D"/>
<path d="M49.3711 146.324H40.0547L75.6797 53.6875H84.9375L49.3711 146.324Z" fill="#29323D"/>
<path fill-rule="evenodd" clip-rule="evenodd" d="M100 200C155.228 200 200 155.228 200 100C200 44.7715 155.228 0 100 0C44.7715 0 0 44.7715 0 100C0 155.228 44.7715 200 100 200ZM100 190C149.706 190 190 149.706 190 100C190 50.2944 149.706 10 100 10C50.2944 10 10 50.2944 10 100C10 149.706 50.2944 190 100 190Z" fill="#29323D"/>
</svg>
